<?xml version="1.0" encoding="utf-8"?>
<!-- Generator: Adobe Illustrator 25.2.1, SVG Export Plug-In . SVG Version: 6.00 Build 0)  -->
<svg version="1.1" id="Layer_1" xmlns="http://www.w3.org/2000/svg" xmlns:xlink="http://www.w3.org/1999/xlink" x="0px" y="0px"
	 viewBox="0 0 314 104" style="enable-background:new 0 0 314 104;" xml:space="preserve">
<style type="text/css">
	.st0{fill-rule:evenodd;clip-rule:evenodd;fill:#FFFFFF;}
	.st1{fill-rule:evenodd;clip-rule:evenodd;fill:#F24955;}
	.st2{fill:#FFFFFF;}
</style>
<g>
	<path class="st0" d="M59.6,39.7c7.8,0.1,13.5,5.2,14.5,12.4c3,22.3-31.4,23-29.2,0.6c0.3-3.4,1.7-4.9,3.2-8
		C49.4,56.9,70.2,46,59.6,39.7z"/>
	<g>
		<g>
			<path class="st1" d="M37.2,52.1c6.1-16.9,17.2-28.7,29.5-39.3C57.2,11.6,50,12.5,42.2,16c-3.6,1.6-10.2,5.1-10.9,7.7
				c-0.6,2,0.3,5.6,0.6,8C32.9,39.6,34.7,46.4,37.2,52.1z"/>
			<path class="st1" d="M49.3,33.7c12.7-4.5,33.4-3.6,46.4-0.9c-6.1-9-13.8-16.3-26-19.2C62.1,18.4,54.9,26.1,49.3,33.7z"/>
			<path class="st1" d="M96.6,35.2c-8-1.6-18.6-3.6-27.5-2.4c13,8.7,22.2,21.1,29.5,35.5C102.7,58.7,101.6,42.9,96.6,35.2z"/>
			<path class="st1" d="M82.1,47c1.4,18.8-3.4,33.8-9.2,46.4c5.8-1.9,10.4-4.7,14.8-8.9c2.6-2.5,9.8-9.5,9.8-13.9
				c0-1.3-1.9-4.6-3-6.5C91.1,57.8,85.9,51.2,82.1,47z"/>
			<path class="st1" d="M61.4,76.3c-18-2.5-31.4-9.6-43.4-18c0.8,6.3,2.2,11.1,5.6,16.8c2,3.4,6.5,10.6,10,11.2
				c1.9,0.3,5.4-1.1,7.7-1.8C48.9,82.4,55.8,79.7,61.4,76.3z"/>
			<path class="st1" d="M35.4,88.1c7.8,5.9,22.1,9.7,34.9,6.2c4-8.1,7.9-17.9,8.9-28.1C68,77,53,83.8,35.4,88.1z"/>
			<path class="st1" d="M29.5,25.5c-6.7,6.1-11.8,16.4-11.8,30.1c7.5,5.8,16.9,11.3,26.3,14.2C36,58.1,30.6,44,29.5,25.5z"/>
		</g>
	</g>
</g>
<g>
	<path class="st2" d="M121.3,18.8h32l-1.4,9.6h-21.6l-1.2,8.8h20.4l-1.4,9.6h-20.4l-1.3,9.6h22.8l-1.3,9.6h-33.2L121.3,18.8z"/>
	<path class="st2" d="M160.5,18.8h10.4l-5.3,37.5h19.2l-1.3,9.6h-29.6L160.5,18.8z"/>
	<path class="st2" d="M193.2,18.8h18.2c9.6,0,17.2,3.3,15.7,14.3c-0.9,6.6-5.1,11.7-12,12.9l9.2,19.9h-12.4L204.7,47h-5.1l-2.7,18.8
		h-10.4L193.2,18.8z M200.8,38.3h6.1c3.8,0,8.8-0.1,9.4-5.3c0.7-4.7-3.5-5.5-7.2-5.5h-6.8L200.8,38.3z"/>
	<path class="st2" d="M256.6,17.6c14.7,0,24.1,9.6,21.9,24.7C276.4,57.4,264.3,67,249.6,67s-24-9.6-21.9-24.7
		C229.9,27.2,241.9,17.6,256.6,17.6z M251,57.5c8.8,0,15.5-6.4,16.8-15.2c1.2-8.8-3.7-15.2-12.5-15.2c-8.8,0-15.6,6.4-16.8,15.2
		C237.3,51.1,242.2,57.5,251,57.5z"/>
	<path class="st2" d="M286.1,18.8h10.4l-6.6,47.1h-10.4L286.1,18.8z"/>
</g>
<g>
	<path class="st2" d="M113.5,87.2c0.5,1,1.5,1.4,2.6,1.4c1.2,0,2.7-0.7,2.9-2.2c0.4-3-6.3-1.1-5.6-6.2c0.2-1.5,1.8-3.7,4.9-3.7
		c1.4,0,2.8,0.3,3.6,1.5l-1.6,1.3c-0.4-0.7-1.2-1.1-2.2-1.1c-2,0-2.7,1.2-2.8,2c-0.5,3.3,6.3,1.3,5.6,6c-0.4,2.5-2.6,4-5.1,4
		c-1.7,0-3.2-0.6-3.9-1.8L113.5,87.2z"/>
	<path class="st2" d="M122,83.4c0.5-3.9,3.8-6.9,7.8-6.9c4,0,6.4,3,5.9,6.9c-0.6,3.9-3.8,6.9-7.8,6.9
		C123.8,90.2,121.4,87.3,122,83.4z M133.7,83.4c0.4-2.9-1.2-5.2-4.2-5.2s-5.2,2.3-5.7,5.2c-0.4,2.9,1.2,5.2,4.2,5.2
		C131,88.6,133.3,86.2,133.7,83.4z"/>
	<path class="st2" d="M138,76.8h8.2l-0.2,1.7h-6.4l-0.6,4.1h6l-0.2,1.7h-6l-0.8,5.7h-1.8L138,76.8z"/>
	<path class="st2" d="M150,78.5h-4.2l0.2-1.7h10.2l-0.2,1.7h-4.2l-1.6,11.4h-1.8L150,78.5z"/>
	<path class="st2" d="M155.3,76.8h1.8l1.4,10.5h0l4.6-10.5h2l1.6,10.5h0l4.4-10.5h1.8l-5.7,13.1h-1.9l-1.7-10.7h0l-4.7,10.7h-1.9
		L155.3,76.8z"/>
	<path class="st2" d="M177.3,76.8h1.6l3.7,13.1h-2.1l-0.9-3.2h-6.2l-1.8,3.2h-2.1L177.3,76.8z M179.3,85.1l-1.6-6h0l-3.3,6H179.3z"
		/>
	<path class="st2" d="M185.1,76.8h4.6c3.3,0,3.9,2,3.7,3.7c-0.2,1.7-1.7,3.2-3.7,3.5l2.9,6h-2.2l-2.5-5.8h-2l-0.8,5.8h-1.8
		L185.1,76.8z M186,82.6h2.3c1.4,0,2.8-0.3,3.1-2.1c0.2-1.8-1.1-2.1-2.5-2.1h-2.3L186,82.6z"/>
	<path class="st2" d="M195.2,76.8h8.4l-0.2,1.7h-6.7l-0.6,3.9h6.2l-0.2,1.7H196l-0.6,4.2h7l-0.2,1.7h-8.8L195.2,76.8z"/>
	<path class="st2" d="M208.4,87.2c0.5,1,1.5,1.4,2.6,1.4c1.2,0,2.7-0.7,2.9-2.2c0.4-3-6.3-1.1-5.6-6.2c0.2-1.5,1.8-3.7,4.9-3.7
		c1.4,0,2.8,0.3,3.6,1.5l-1.6,1.3c-0.4-0.7-1.2-1.1-2.2-1.1c-2,0-2.7,1.2-2.8,2c-0.5,3.3,6.3,1.3,5.6,6c-0.4,2.5-2.6,4-5.1,4
		c-1.7,0-3.2-0.6-3.9-1.8L208.4,87.2z"/>
	<path class="st2" d="M216.9,83.4c0.5-3.9,3.8-6.9,7.8-6.9s6.4,3,5.9,6.9c-0.6,3.9-3.8,6.9-7.8,6.9
		C218.7,90.2,216.3,87.3,216.9,83.4z M228.6,83.4c0.4-2.9-1.2-5.2-4.2-5.2c-3,0-5.2,2.3-5.6,5.2c-0.4,2.9,1.2,5.2,4.2,5.2
		C225.9,88.6,228.2,86.2,228.6,83.4z"/>
	<path class="st2" d="M232.9,76.8h1.8L233,88.2h6l-0.2,1.7H231L232.9,76.8z"/>
	<path class="st2" d="M242.9,76.8l-1.1,8c-0.2,1.6,0.3,3.7,2.8,3.7c2.5,0,3.6-2.1,3.8-3.7l1.1-8h1.8l-1.2,8.3
		c-0.4,3-2.9,5.1-5.8,5.1c-2.9,0-4.8-2.1-4.3-5.1l1.2-8.3H242.9z"/>
	<path class="st2" d="M255.7,78.5h-4.2l0.2-1.7h10.2l-0.2,1.7h-4.2l-1.6,11.4h-1.8L255.7,78.5z"/>
	<path class="st2" d="M262.7,76.8h1.8l-1.8,13.1h-1.8L262.7,76.8z"/>
	<path class="st2" d="M265,83.4c0.5-3.9,3.8-6.9,7.8-6.9c4,0,6.4,3,5.9,6.9c-0.6,3.9-3.8,6.9-7.8,6.9
		C266.8,90.2,264.4,87.3,265,83.4z M276.7,83.4c0.4-2.9-1.2-5.2-4.2-5.2c-3,0-5.2,2.3-5.6,5.2c-0.4,2.9,1.2,5.2,4.2,5.2
		C274.1,88.6,276.3,86.2,276.7,83.4z"/>
	<path class="st2" d="M281,76.8h2.3l5.7,10.7h0l1.5-10.7h1.8l-1.8,13.1h-2.3l-5.8-10.7h0l-1.5,10.7h-1.8L281,76.8z"/>
</g>
</svg>
